<?xml version="1.0" encoding="UTF-8"?>
<svg width="24px" height="24px" viewBox="0 0 24 24" version="1.1" xmlns="http://www.w3.org/2000/svg" xmlns:xlink="http://www.w3.org/1999/xlink">
    <!-- Generator: Sketch 53.2 (72643) - https://sketchapp.com -->
    <title>Artboard</title>
    <desc>Created with Sketch.</desc>
    <g id="Artboard" stroke="none" stroke-width="1" fill="none" fill-rule="evenodd">
        <g id="credit-card" transform="translate(1.000000, 4.000000)" fill="#000000" fill-rule="nonzero">
            <path d="M2,1 C1.44771525,1 1,1.44771525 1,2 L1,14 C1,14.5522847 1.44771525,15 2,15 L20,15 C20.5522847,15 21,14.5522847 21,14 L21,2 C21,1.44771525 20.5522847,1 20,1 L2,1 Z M2,-1 L20,-1 C21.6568542,-1 23,0.343145751 23,2 L23,14 C23,15.6568542 21.6568542,17 20,17 L2,17 C0.343145751,17 -1,15.6568542 -1,14 L-1,2 C-1,0.343145751 0.343145751,-1 2,-1 Z" id="Rectangle"></path>
            <path d="M0,7 C-0.55228475,7 -1,6.55228475 -1,6 C-1,5.44771525 -0.55228475,5 0,5 L22,5 C22.5522847,5 23,5.44771525 23,6 C23,6.55228475 22.5522847,7 22,7 L0,7 Z" id="Path"></path>
        </g>
    </g>
</svg>